Normalized EMG Linear Envelopes
nRows=234
nColumns=4

endheader
time	 med_gas_r	  soleus_r	 tib_ant_r	
2.99395	  0.007879	  0.007258	  0.004814	
3.02722	  0.008127	  0.007374	  0.004814	
3.06048	  0.008385	  0.007453	  0.004833	
3.09375	  0.008646	  0.007479	  0.004874	
3.12702	  0.008880	  0.007451	  0.004931	
3.16028	  0.009056	  0.007385	  0.004997	
3.19355	  0.009162	  0.007309	  0.005063	
3.22681	  0.009207	  0.007256	  0.005122	
3.26008	  0.009208	  0.007258	  0.005160	
3.29335	  0.009173	  0.007338	  0.005158	
3.32661	  0.009098	  0.007499	  0.005101	
3.35988	  0.008978	  0.007720	  0.004988	
3.39315	  0.008818	  0.007962	  0.004830	
3.42641	  0.008633	  0.008183	  0.004647	
3.45968	  0.008443	  0.008352	  0.004462	
3.49294	  0.008261	  0.008448	  0.004297	
3.52621	  0.008102	  0.008467	  0.004170	
3.55948	  0.007977	  0.008413	  0.004091	
3.59274	  0.007904	  0.008300	  0.004069	
3.62601	  0.007893	  0.008149	  0.004116	
3.65927	  0.007939	  0.007986	  0.004238	
3.69254	  0.008019	  0.007838	  0.004434	
3.72581	  0.008097	  0.007728	  0.004678	
3.75907	  0.008148	  0.007668	  0.004925	
3.79234	  0.008162	  0.007654	  0.005128	
3.8256	  0.008154	  0.007671	  0.005250	
3.85887	  0.008141	  0.007702	  0.005281	
3.89214	  0.008136	  0.007730	  0.005228	
3.9254	  0.008136	  0.007744	  0.005105	
3.95867	  0.008145	  0.007738	  0.004924	
3.99194	  0.008175	  0.007706	  0.004699	
4.0252	  0.008247	  0.007642	  0.004452	
4.05847	  0.008367	  0.007548	  0.004220	
4.09173	  0.008518	  0.007428	  0.004043	
4.125	  0.008666	  0.007295	  0.003946	
4.15827	  0.008792	  0.007167	  0.003934	
4.19153	  0.008904	  0.007062	  0.003995	
4.2248	  0.009027	  0.006997	  0.004106	
4.25806	  0.009167	  0.006989	  0.004245	
4.29133	  0.009298	  0.007044	  0.004389	
4.3246	  0.009375	  0.007151	  0.004516	
4.35786	  0.009358	  0.007289	  0.004610	
4.39113	  0.009236	  0.007426	  0.004660	
4.4244	  0.009027	  0.007535	  0.004669	
4.45766	  0.008756	  0.007593	  0.004652	
4.49093	  0.008448	  0.007592	  0.004622	
4.52419	  0.008121	  0.007538	  0.004586	
4.55746	  0.007799	  0.007441	  0.004530	
4.59073	  0.007514	  0.007314	  0.004417	
4.62399	  0.007304	  0.007155	  0.004194	
4.65726	  0.007202	  0.006953	  0.003795	
4.69052	  0.007220	  0.006693	  0.003161	
4.72379	  0.007346	  0.006375	  0.002265	
4.75706	  0.007543	  0.006016	  0.001148	
4.79032	  0.007764	  0.005655	 -0.000037	
4.82359	  0.007965	  0.005355	 -0.000969	
4.85685	  0.008113	  0.005220	 -0.001122	
4.89012	  0.008198	  0.005398	  0.000244	
4.92339	  0.008245	  0.006091	  0.004047	
4.95665	  0.008325	  0.007532	  0.011316	
4.98992	  0.008551	  0.009964	  0.023070	
5.02319	  0.009043	  0.013609	  0.040106	
5.05645	  0.009886	  0.018614	  0.062653	
5.08972	  0.011094	  0.024947	  0.089984	
5.12298	  0.012603	  0.032299	  0.120283	
5.15625	  0.014325	  0.040064	  0.151056	
5.18952	  0.016217	  0.047502	  0.180040	
5.22278	  0.018328	  0.054023	  0.206062	
5.25605	  0.020760	  0.059399	  0.229228	
5.28931	  0.023544	  0.063742	  0.250342	
5.32258	  0.026546	  0.067288	  0.270154	
5.35585	  0.029477	  0.070198	  0.289118	
5.38911	  0.032034	  0.072529	  0.307702	
5.42238	  0.034060	  0.074353	  0.326697	
5.45565	  0.035610	  0.075887	  0.347035	
5.48891	  0.036912	  0.077529	  0.369244	
5.52218	  0.038249	  0.079835	  0.393053	
5.55544	  0.039866	  0.083409	  0.417422	
5.58871	  0.041930	  0.088744	  0.440847	
5.62198	  0.044547	  0.096056	  0.461733	
5.65524	  0.047792	  0.105237	  0.478797	
5.68851	  0.051666	  0.115939	  0.491533	
5.72177	  0.056020	  0.127665	  0.500593	
5.75504	  0.060528	  0.139813	  0.507758	
5.78831	  0.064789	  0.151744	  0.515290	
5.82157	  0.068538	  0.162959	  0.524843	
5.85484	  0.071751	  0.173234	  0.536587	
5.8881	  0.074544	  0.182508	  0.549262	
5.92137	  0.076942	  0.190577	  0.561238	
5.95464	  0.078780	  0.196989	  0.571804	
5.9879	  0.079849	  0.201360	  0.581553	
6.02117	  0.080150	  0.203830	  0.591465	
6.05444	  0.079956	  0.205152	  0.601504	
6.0877	  0.079627	  0.206261	  0.610120	
6.12097	  0.079354	  0.207718	  0.615235	
6.15423	  0.079096	  0.209448	  0.615809	
6.1875	  0.078697	  0.210851	  0.612471	
6.22077	  0.078019	  0.211096	  0.606746	
6.25403	  0.076985	  0.209518	  0.599809	
6.2873	  0.075591	  0.206087	  0.592054	
6.32056	  0.073961	  0.201732	  0.583664	
6.35383	  0.072367	  0.198117	  0.575168	
6.3871	  0.071117	  0.196745	  0.567174	
6.42036	  0.070388	  0.197971	  0.559633	
6.45363	  0.070174	  0.200788	  0.551781	
6.4869	  0.070407	  0.203632	  0.543261	
6.52016	  0.071072	  0.205468	  0.535465	
6.55343	  0.072156	  0.206219	  0.531706	
6.58669	  0.073514	  0.206363	  0.535745	
6.61996	  0.074837	  0.206358	  0.549673	
6.65323	  0.075802	  0.206492	  0.572572	
6.68649	  0.076235	  0.207084	  0.600626	
6.71976	  0.076174	  0.208600	  0.628375	
6.75302	  0.075817	  0.211496	  0.650375	
6.78629	  0.075458	  0.215994	  0.662559	
6.81956	  0.075427	  0.221979	  0.662917	
6.85282	  0.075989	  0.229018	  0.651570	
6.88609	  0.077222	  0.236382	  0.630616	
6.91935	  0.078937	  0.243087	  0.603955	
6.95262	  0.080722	  0.248065	  0.576901	
6.98589	  0.082115	  0.250513	  0.555183	
7.01915	  0.082772	  0.250254	  0.543346	
7.05242	  0.082563	  0.247804	  0.543119	
7.08569	  0.081554	  0.244093	  0.552746	
7.11895	  0.079985	  0.240073	  0.567912	
7.15222	  0.078265	  0.236519	  0.583921	
7.18548	  0.076907	  0.234017	  0.597766	
7.21875	  0.076310	  0.232941	  0.608722	
7.25202	  0.076517	  0.233353	  0.617350	
7.28528	  0.077172	  0.234984	  0.624078	
7.31855	  0.077808	  0.237463	  0.628750	
7.35181	  0.078251	  0.240733	  0.631356	
7.38508	  0.078805	  0.245344	  0.632974	
7.41835	  0.080048	  0.252301	  0.635830	
7.45161	  0.082389	  0.262451	  0.642388	
7.48488	  0.085772	  0.275790	  0.654255	
7.51815	  0.089733	  0.291230	  0.671641	
7.55141	  0.093738	  0.307036	  0.693332	
7.58468	  0.097451	  0.321564	  0.716658	
7.61794	  0.100714	  0.333663	  0.737416	
7.65121	  0.103304	  0.342458	  0.750510	
7.68448	  0.104832	  0.347013	  0.751930	
7.71774	  0.104949	  0.346562	  0.741287	
7.75101	  0.103718	  0.341298	  0.722816	
7.78427	  0.101718	  0.332829	  0.703543	
7.81754	  0.099735	  0.323551	  0.689789	
7.85081	  0.098260	  0.315311	  0.684689	
7.88407	  0.097247	  0.308505	  0.688163	
7.91734	  0.096284	  0.302339	  0.698316	
7.9506	  0.094983	  0.295803	  0.712459	
7.98387	  0.093224	  0.288435	  0.727264	
8.01714	  0.091139	  0.280343	  0.738905	
8.0504	  0.088887	  0.271711	  0.743785	
8.08367	  0.086458	  0.262383	  0.739400	
8.11694	  0.083630	  0.251887	  0.724717	
8.1502	  0.080149	  0.239967	  0.700295	
8.18347	  0.076029	  0.227294	  0.668672	
8.21673	  0.071778	  0.215781	  0.634732	
8.25	  0.068312	  0.208060	  0.604959	
8.28327	  0.066544	  0.206270	  0.585252	
8.31653	  0.066874	  0.210925	  0.578473	
8.3498	  0.068926	  0.220594	  0.583470	
8.38306	  0.071697	  0.232446	  0.596151	
8.41633	  0.074033	  0.243226	  0.611623	
8.4496	  0.075150	  0.250154	  0.626008	
8.48286	  0.074903	  0.251572	  0.637254	
8.51613	  0.073733	  0.247320	  0.645132	
8.5494	  0.072369	  0.238772	  0.650735	
8.58266	  0.071514	  0.228463	  0.655622	
8.61593	  0.071619	  0.219372	  0.660713	
8.64919	  0.072799	  0.214143	  0.665450	
8.68246	  0.074847	  0.214474	  0.667916	
8.71573	  0.077338	  0.220773	  0.666194	
8.74899	  0.079792	  0.232077	  0.660189	
8.78226	  0.081844	  0.246309	  0.652421	
8.81552	  0.083372	  0.261030	  0.646943	
8.84879	  0.084541	  0.274454	  0.647121	
8.88206	  0.085739	  0.286151	  0.653986	
8.91532	  0.087413	  0.296794	  0.666168	
8.94859	  0.089823	  0.307006	  0.681013	
8.98185	  0.092825	  0.316176	  0.695764	
9.01512	  0.095806	  0.322262	  0.708202	
9.04839	  0.097868	  0.322851	  0.716871	
9.08165	  0.098213	  0.316718	  0.721163	
9.11492	  0.096536	  0.304707	  0.721246	
9.14819	  0.093179	  0.289375	  0.717695	
9.18145	  0.088963	  0.273841	  0.710975	
9.21472	  0.084820	  0.260644	  0.701163	
9.24798	  0.081445	  0.251172	  0.688124	
9.28125	  0.079155	  0.245658	  0.672025	
9.31452	  0.077956	  0.243497	  0.653763	
9.34778	  0.077689	  0.243597	  0.634906	
9.38105	  0.078111	  0.244609	  0.617104	
9.41431	  0.078880	  0.245139	  0.601388	
9.44758	  0.079571	  0.244147	  0.587961	
9.48085	  0.079831	  0.241547	  0.576624	
9.51411	  0.079595	  0.238553	  0.567384	
9.54738	  0.079145	  0.237284	  0.560533	
9.58065	  0.078858	  0.239590	  0.556193	
9.61391	  0.078851	  0.245781	  0.553945	
9.64718	  0.078810	  0.254154	  0.552987	
9.68044	  0.078172	  0.261629	  0.552579	
9.71371	  0.076466	  0.265027	  0.552212	
9.74698	  0.073535	  0.262209	  0.551375	
9.78024	  0.069529	  0.252624	  0.549217	
9.81351	  0.064808	  0.237282	  0.544393	
9.84677	  0.059849	  0.218266	  0.535173	
9.88004	  0.055133	  0.197904	  0.519805	
9.91331	  0.050988	  0.177900	  0.497093	
9.94657	  0.047430	  0.158905	  0.466899	
9.97984	  0.044167	  0.140814	  0.430193	
10.0131	  0.040793	  0.123436	  0.388628	
10.0464	  0.037048	  0.106953	  0.344072	
10.0796	  0.032947	  0.091864	  0.298425	
10.1129	  0.028733	  0.078608	  0.253614	
10.1462	  0.024720	  0.067291	  0.211443	
10.1794	  0.021151	  0.057679	  0.173255	
10.2127	  0.018139	  0.049375	  0.139634	
10.246	  0.015683	  0.042008	  0.110476	
10.2792	  0.013722	  0.035342	  0.085430	
10.3125	  0.012186	  0.029309	  0.064343	
10.3458	  0.011016	  0.023964	  0.047315	
10.379	  0.010154	  0.019399	  0.034359	
10.4123	  0.009530	  0.015663	  0.025075	
10.4456	  0.009064	  0.012731	  0.018678	
10.4788	  0.008694	  0.010555	  0.014327	
10.5121	  0.008381	  0.009100	  0.011405	
10.5454	  0.008111	  0.008358	  0.009543	
10.5786	  0.007880	  0.008316	  0.008494	
10.6119	  0.007689	  0.008923	  0.008020	
10.6452	  0.007537	  0.010081	  0.007884	
10.6784	  0.007425	  0.011647	  0.007892	
10.7117	  0.007348	  0.013454	  0.007919	
10.745	  0.007296	  0.015322	  0.007914	
